<?xml version="1.0" encoding="UTF-8" standalone="no"?>
<!-- Created with Inkscape (http://www.inkscape.org/) -->

<svg
   xmlns:dc="http://purl.org/dc/elements/1.1/"
   xmlns:cc="http://creativecommons.org/ns#"
   xmlns:rdf="http://www.w3.org/1999/02/22-rdf-syntax-ns#"
   xmlns:svg="http://www.w3.org/2000/svg"
   xmlns="http://www.w3.org/2000/svg"
   xmlns:sodipodi="http://sodipodi.sourceforge.net/DTD/sodipodi-0.dtd"
   xmlns:inkscape="http://www.inkscape.org/namespaces/inkscape"
   width="270.24442"
   height="374.44858"
   id="svg6179"
   version="1.1"
   inkscape:version="0.48.5 r10040"
   sodipodi:docname="Logo_Whiteborder.svg">
  <defs
     id="defs6181" />
  <sodipodi:namedview
     id="base"
     pagecolor="#ffffff"
     bordercolor="#666666"
     borderopacity="1.0"
     inkscape:pageopacity="0.0"
     inkscape:pageshadow="2"
     inkscape:zoom="2.8"
     inkscape:cx="91.527426"
     inkscape:cy="171.25922"
     inkscape:document-units="px"
     inkscape:current-layer="layer1"
     showgrid="false"
     fit-margin-top="0"
     fit-margin-left="0"
     fit-margin-right="0"
     fit-margin-bottom="0"
     inkscape:window-width="2560"
     inkscape:window-height="1378"
     inkscape:window-x="-8"
     inkscape:window-y="-8"
     inkscape:window-maximized="1" />
  <metadata
     id="metadata6184">
    <rdf:RDF>
      <cc:Work
         rdf:about="">
        <dc:format>image/svg+xml</dc:format>
        <dc:type
           rdf:resource="http://purl.org/dc/dcmitype/StillImage" />
        <dc:title />
      </cc:Work>
    </rdf:RDF>
  </metadata>
  <g
     inkscape:label="Layer 1"
     inkscape:groupmode="layer"
     id="layer1"
     transform="translate(-237.55772,-198.58909)">
    <g
       id="g4825"
       transform="matrix(1.0335154,0,0,1.0335154,-84.579097,-275.24871)"
       style="fill:#ffffff">
      <path
         inkscape:connector-curvature="0"
         id="path4827"
         d="m 556.3,488.2 c 0,0 -57.1,-1.6 -113.9,-28 -45.7,22.4 -114,27.9 -114,27.9 L 314,506 328,719.2 c 9.7,27.2 64.7,64 114,99.7 49.1,-36.5 102.1,-72.2 114.7,-99.5 l 14,-213.2 -14.4,-18 z"
         style="fill:#ffffff" />
      <g
         id="g4829"
         style="fill:#ffffff">
        <path
           inkscape:connector-curvature="0"
           id="path4831"
           d="m 556.6,486.5 c -13.4,-0.4 -26.8,-2.5 -39.9,-4.9 -13.8,-2.6 -27.5,-6.1 -40.9,-10.4 -7.2,-2.3 -14.2,-4.9 -21.2,-7.8 -3.6,-1.5 -7.2,-3.1 -10.7,-4.7 -2,-0.9 -4.6,1.1 -6.3,1.9 -21.9,10.2 -45.9,15.9 -69.6,20.3 -12.9,2.4 -26,4.4 -39,5.5 -4.1,0.3 -7.7,7.5 -10,10.3 -2,2.5 -4.1,5.1 -6.1,7.6 -0.6,0.8 -1.3,1.4 -1.2,2.5 0.4,5.5 0.7,11 1.1,16.5 1.8,28.2 3.7,56.3 5.5,84.5 1.9,29.6 3.9,59.1 5.8,88.7 0.5,7.3 1,14.5 1.4,21.8 0.2,3.2 1.9,6 3.5,8.7 4.8,8.4 11.8,15.6 18.7,22.4 27.8,27 61.2,48.3 92.5,70.9 1,0.7 2.5,0.6 3.5,-0.1 24.4,-18.1 49.3,-35.6 72.9,-54.7 9.4,-7.6 18.6,-15.6 27,-24.4 3.4,-3.5 6.5,-7.2 9.4,-11.1 1.9,-2.5 6,-7.2 6.3,-10.5 1.1,-16.4 2.1,-32.8 3.2,-49.2 3.5,-53.8 7.1,-107.6 10.6,-161.4 0.1,-2.2 0.3,-3.1 -1.1,-4.9 -4.4,-5.5 -8.9,-11 -13.3,-16.5 -1.4,-1.7 -6.1,0 -4.5,1.9 3.9,4.8 7.7,9.6 11.6,14.4 0.8,1 1.6,1.9 2.3,2.9 0.7,0.8 0.3,0.6 0.3,-0.2 0,0.5 -0.1,1 -0.1,1.5 -0.5,7.3 -1,14.5 -1.4,21.8 -1.9,29.6 -3.9,59.1 -5.8,88.7 -1.8,28.2 -3.7,56.3 -5.5,84.5 -0.4,5.5 -0.7,11 -1.1,16.5 -0.1,2 -2.7,5 -3.8,6.6 -2.9,4.5 -6.5,8.5 -10.1,12.5 -8.6,9.3 -18.4,17.6 -28.3,25.6 -23.2,18.8 -47.7,35.9 -71.7,53.7 1.2,0 2.3,-0.1 3.5,-0.1 -24.1,-17.4 -48.7,-34.3 -71.9,-53 -9.7,-7.8 -19.2,-16 -27.7,-25.2 -3.2,-3.4 -6.1,-7.1 -8.7,-10.9 -1.7,-2.5 -5,-6.7 -5.2,-9.8 -1.1,-17 -2.2,-33.9 -3.3,-50.9 -3.5,-53.4 -7,-106.7 -10.5,-160.1 0,-0.6 -0.1,-1.3 -0.1,-1.9 0,-0.7 0.1,0.4 -0.4,1.1 0.6,-0.8 1.3,-1.6 1.9,-2.3 4.2,-5.2 8.3,-10.4 12.5,-15.5 -0.8,0.3 -1.5,0.6 -2.3,0.9 13.6,-1.1 27.1,-3.2 40.5,-5.6 25.5,-4.7 51.3,-11.2 74.7,-22.6 -0.8,0 -1.6,0.1 -2.5,0.1 24.8,11.5 51.2,19.2 78.1,24 12.2,2.2 24.6,3.9 36.9,4.3 2.6,-0.3 3.7,-3.8 0.5,-3.9 z"
           style="fill:#ffffff" />
      </g>
    </g>
    <g
       transform="translate(-69.887549,-253.73994)"
       id="g5848">
      <path
         d="m 556.3,488.2 c 0,0 -57.1,-1.6 -113.9,-28 -45.7,22.4 -114,27.9 -114,27.9 L 314,506 328,719.2 c 9.7,27.2 64.7,64 114,99.7 49.1,-36.5 102.1,-72.2 114.7,-99.5 l 14,-213.2 -14.4,-18 z"
         id="path5850"
         inkscape:connector-curvature="0" />
      <g
         id="g5852">
        <path
           d="m 556.6,486.5 c -13.4,-0.4 -26.8,-2.5 -39.9,-4.9 -13.8,-2.6 -27.5,-6.1 -40.9,-10.4 -7.2,-2.3 -14.2,-4.9 -21.2,-7.8 -3.6,-1.5 -7.2,-3.1 -10.7,-4.7 -2,-0.9 -4.6,1.1 -6.3,1.9 -21.9,10.2 -45.9,15.9 -69.6,20.3 -12.9,2.4 -26,4.4 -39,5.5 -4.1,0.3 -7.7,7.5 -10,10.3 -2,2.5 -4.1,5.1 -6.1,7.6 -0.6,0.8 -1.3,1.4 -1.2,2.5 0.4,5.5 0.7,11 1.1,16.5 1.8,28.2 3.7,56.3 5.5,84.5 1.9,29.6 3.9,59.1 5.8,88.7 0.5,7.3 1,14.5 1.4,21.8 0.2,3.2 1.9,6 3.5,8.7 4.8,8.4 11.8,15.6 18.7,22.4 27.8,27 61.2,48.3 92.5,70.9 1,0.7 2.5,0.6 3.5,-0.1 24.4,-18.1 49.3,-35.6 72.9,-54.7 9.4,-7.6 18.6,-15.6 27,-24.4 3.4,-3.5 6.5,-7.2 9.4,-11.1 1.9,-2.5 6,-7.2 6.3,-10.5 1.1,-16.4 2.1,-32.8 3.2,-49.2 3.5,-53.8 7.1,-107.6 10.6,-161.4 0.1,-2.2 0.3,-3.1 -1.1,-4.9 -4.4,-5.5 -8.9,-11 -13.3,-16.5 -1.4,-1.7 -6.1,0 -4.5,1.9 3.9,4.8 7.7,9.6 11.6,14.4 0.8,1 1.6,1.9 2.3,2.9 0.7,0.8 0.3,0.6 0.3,-0.2 0,0.5 -0.1,1 -0.1,1.5 -0.5,7.3 -1,14.5 -1.4,21.8 -1.9,29.6 -3.9,59.1 -5.8,88.7 -1.8,28.2 -3.7,56.3 -5.5,84.5 -0.4,5.5 -0.7,11 -1.1,16.5 -0.1,2 -2.7,5 -3.8,6.6 -2.9,4.5 -6.5,8.5 -10.1,12.5 -8.6,9.3 -18.4,17.6 -28.3,25.6 -23.2,18.8 -47.7,35.9 -71.7,53.7 1.2,0 2.3,-0.1 3.5,-0.1 -24.1,-17.4 -48.7,-34.3 -71.9,-53 -9.7,-7.8 -19.2,-16 -27.7,-25.2 -3.2,-3.4 -6.1,-7.1 -8.7,-10.9 -1.7,-2.5 -5,-6.7 -5.2,-9.8 -1.1,-17 -2.2,-33.9 -3.3,-50.9 -3.5,-53.4 -7,-106.7 -10.5,-160.1 0,-0.6 -0.1,-1.3 -0.1,-1.9 0,-0.7 0.1,0.4 -0.4,1.1 0.6,-0.8 1.3,-1.6 1.9,-2.3 4.2,-5.2 8.3,-10.4 12.5,-15.5 -0.8,0.3 -1.5,0.6 -2.3,0.9 13.6,-1.1 27.1,-3.2 40.5,-5.6 25.5,-4.7 51.3,-11.2 74.7,-22.6 -0.8,0 -1.6,0.1 -2.5,0.1 24.8,11.5 51.2,19.2 78.1,24 12.2,2.2 24.6,3.9 36.9,4.3 2.6,-0.3 3.7,-3.8 0.5,-3.9 z"
           id="path5854"
           inkscape:connector-curvature="0" />
      </g>
    </g>
    <g
       transform="translate(-69.887549,-253.73994)"
       id="g5856">
      <path
         d="m 540.5,515.5 c 0,0 -49.2,-1.4 -98.1,-24.2 -39.3,19.3 -98.2,24 -98.2,24 l -12.4,15.4 12,183.6 c 8.3,23.4 55.8,55.2 98.2,85.8 42.3,-31.4 87.9,-62.2 98.8,-85.7 l 12,-183.6 -12.3,-15.3 z"
         id="path5858"
         inkscape:connector-curvature="0"
         style="fill:#ffffff" />
      <g
         id="g5860">
        <path
           d="m 540.8,513.7 c -14.9,-0.4 -30,-3.1 -44.6,-6.4 -14.8,-3.3 -29.4,-7.9 -43.4,-13.7 -2.9,-1.2 -6.4,-3.5 -9.5,-4.1 -2,-0.3 -4.1,1.3 -5.8,2.1 -5.8,2.7 -11.8,4.9 -17.8,6.9 -20.6,6.9 -42.3,11 -63.8,13.8 -3.8,0.5 -7.6,0.9 -11.4,1.3 -2.2,0.2 -3.2,2.1 -4.5,3.7 -2.5,3.1 -5,6.3 -7.6,9.4 -1.6,2 -3.2,3.3 -3.1,5.9 0.2,2.7 0.4,5.5 0.5,8.2 0.8,11.5 1.5,22.9 2.3,34.4 2.1,31.7 4.2,63.4 6.2,95.1 1,14.9 2,29.8 2.9,44.7 0.2,2.6 2.7,6 4,8.1 2.2,3.6 5,6.8 7.8,10 6.8,7.7 14.6,14.4 22.5,20.9 20.6,17 42.8,32.1 64.4,47.7 1,0.7 2.5,0.6 3.5,-0.1 23.6,-17.5 47.9,-34.3 70.3,-53.4 8.5,-7.3 16.9,-15 23.6,-24 2.3,-3 5.6,-6.8 5.8,-10.8 1.4,-21.9 2.9,-43.7 4.3,-65.6 2,-30.2 4,-60.4 5.9,-90.6 0.5,-8.1 1.1,-16.2 1.6,-24.3 0.1,-1.8 0.2,-2.5 -1,-4 -3.8,-4.8 -7.7,-9.5 -11.5,-14.3 -1.4,-1.7 -6.1,0 -4.5,1.9 3.8,4.8 7.7,9.5 11.5,14.3 1.3,1.6 0.8,-0.1 0.7,0.7 -0.1,0.9 -0.1,1.7 -0.2,2.6 -0.6,9 -1.2,18 -1.8,27 -2,31.2 -4.1,62.3 -6.1,93.5 -1.3,19.6 -2.6,39.3 -3.9,58.9 -0.3,3.9 -4,7.9 -6.3,10.8 -6.9,9 -15.6,16.6 -24.2,23.9 -21.5,18.2 -44.8,34.2 -67.4,51 1.2,0 2.3,-0.1 3.5,-0.1 -23.8,-17.2 -48.2,-33.6 -70.4,-52.7 -8.4,-7.2 -16.7,-15 -23,-24.3 -2,-3 -4.1,-6.2 -4.4,-9.8 -1.5,-22.6 -3,-45.2 -4.4,-67.9 -1.9,-29.2 -3.8,-58.5 -5.7,-87.7 -0.5,-7.9 -1,-15.9 -1.6,-23.8 0,-0.7 -0.1,-1.4 -0.1,-2.1 0,-0.1 0,-0.2 0,-0.3 0.1,1.6 -0.4,1.3 0.8,-0.3 3.7,-4.6 7.4,-9.2 11.1,-13.8 -0.8,0.3 -1.5,0.6 -2.3,0.9 33.6,-2.7 69,-9.6 99.5,-24.3 -0.8,0 -1.6,0.1 -2.5,0.1 30.6,14.1 65.4,23.4 99.3,24.4 2.9,-0.1 4.1,-3.7 0.8,-3.8 z"
           id="path5862"
           inkscape:connector-curvature="0" />
      </g>
    </g>
    <g
       transform="translate(-75.887549,-253.73994)"
       id="fotball_1_">
      <ellipse
         d="m 418.09999,736.09998 c 0,8.50518 -6.80527,15.4 -15.2,15.4 -8.39472,0 -15.2,-6.89482 -15.2,-15.4 0,-8.50519 6.80528,-15.4 15.2,-15.4 8.39473,0 15.2,6.89481 15.2,15.4 z"
         cx="402.89999"
         cy="736.09998"
         rx="15.2"
         ry="15.4"
         id="ellipse5865"
         sodipodi:cx="402.89999"
         sodipodi:cy="736.09998"
         sodipodi:rx="15.2"
         sodipodi:ry="15.4"
         style="fill:#ffffff" />
      <path
         d="m 402.9,731.6 c -0.1,-0.2 -0.1,-0.4 -0.1,-0.6 0,-0.3 0,-0.6 0,-1 0,-0.1 0.1,-0.2 0.2,-0.3 0.1,0.2 0.2,0.4 0.3,0.6 0.8,1 1.9,1.7 3,2.3 0.2,0.1 0.4,0.2 0.7,0.3 0.2,0.1 0.4,0.1 0.7,0.2 0,-0.1 -0.1,-0.2 -0.2,-0.2 -1.1,-0.4 -2.2,-1 -3.1,-1.8 -0.5,-0.4 -1,-0.9 -1.5,-1.3 -0.3,-0.5 -0.3,-0.7 0,-0.8 0,0.1 0.1,0.3 0.1,0.4 0.6,1 1.5,1.8 2.6,2.4 0.7,0.4 1.5,0.8 2.4,1 0,-0.1 -0.1,-0.1 -0.1,-0.1 -0.1,-0.1 -0.2,-0.1 -0.3,-0.1 -1.3,-0.5 -2.5,-1.3 -3.6,-2.3 -0.4,-0.4 -0.8,-0.8 -1.2,-1.2 -0.1,-0.4 -0.2,-0.7 -0.3,-1.1 -0.1,-0.4 -0.3,-0.9 -0.5,-1.3 -0.5,-0.9 -1.2,-1.8 -2.1,-2.4 -1.3,-0.9 -2.7,-1.2 -4.2,-0.9 -0.8,0.2 -1.6,0.5 -2.4,0.8 0.1,-0.1 0.2,-0.2 0.3,-0.3 1.7,-1.4 3.6,-2.2 3.6,-2.2 0,0 1.1,-0.6 3.3,-0.8 1.1,-0.1 1.4,-0.1 1.6,-0.1 0.2,0 1.6,-0.2 3.6,0.2 1.9,0.4 5.3,2.1 4.7,2.1 -1.2,-0.5 -3.2,-1.1 -3.5,-1.2 -0.3,-0.1 -2.9,-0.9 -4.3,-0.8 -0.6,0.1 3.5,1.3 5.2,1.9 0,0 0.1,0 0,0 -0.8,0 -1.6,-0.1 -2.4,0 -2.5,0.3 -3.9,3.2 -2.5,5.5 1.6,2.7 4,4.1 7.1,4 0.2,0 0.5,-0.1 0.7,-0.1 0.2,0 0.4,-0.1 0.7,-0.2 -0.5,0.6 -1,1.1 -1.4,1.6 -0.9,1.1 -1.6,2.3 -2.1,3.6 -0.6,1.4 -1.3,2.8 -1.5,4.4 -0.1,0.7 -0.1,1 -0.2,1.8 0,0.3 -0.1,1.1 -0.1,1.5 0,0.3 0,0.7 0.1,1 0.3,1 0.7,1.9 1.5,2.5 1.1,0.8 2.3,0.8 3.3,0.1 0.2,-0.1 1.3,-1.2 1.3,-1.2 0.4,-0.4 0.7,-0.7 1.1,-1.1 0.5,-0.5 0.8,-1.1 1.1,-1.8 0.3,-0.7 0.6,-1.4 0.7,-2.1 0.1,-0.5 -0.1,-0.8 -0.5,-0.9 -0.6,-0.2 -1,-0.7 -1.2,-1.4 -0.1,-0.4 -0.2,-0.8 -0.3,-1.1 0,0 -0.1,-0.1 -0.2,-0.1 -0.6,0.3 -1,0 -1.4,-0.4 -0.3,-0.3 -0.5,-0.6 -0.8,-0.9 -0.2,-0.2 -0.3,-0.3 -0.5,0 -0.1,0.3 -0.4,0.3 -0.5,0.1 -0.1,-0.2 -0.3,-0.5 -0.2,-0.7 0.1,-0.2 0.4,-0.5 0.6,-0.5 0.4,0 0.7,0.1 1.1,0.2 0.1,0 0.3,0 0.4,0.1 0,-0.2 0.1,-0.4 0,-0.5 -0.1,-0.1 -0.3,-0.2 -0.4,-0.3 -0.3,-0.1 -0.9,-0.9 -0.9,-1.2 0,-0.1 0,-0.1 0,-0.2 0.3,-0.3 0.5,-0.5 0.8,-0.8 0.1,-0.1 0.2,-0.1 0.3,-0.2 0.2,-0.3 0.3,-0.5 0.5,0 0,0 0.1,0.1 0.2,0.1 0.4,-0.3 0.4,0 0.5,0.3 0.1,0.2 0.2,0.3 0.3,0.4 0.9,0.7 1.6,1.6 2,2.7 0.3,0.9 0.6,1.8 0.9,2.7 0.1,0.2 0.1,0.4 0.2,0.6 0.1,0.2 0.3,0.3 0.5,0.4 0.1,-0.2 0.2,-0.3 0.3,-0.5 0.2,-0.6 0.4,-1.2 0.8,-1.7 -0.3,0.9 -0.4,1.8 -0.8,2.6 -0.8,2 -1.8,4 -3.4,5.6 -2,2 -4.3,3.6 -7.1,4.3 -1.2,0.3 -2.3,0.4 -3.5,0 -1.3,-0.5 -2.6,-0.9 -4,-1.4 -0.2,-0.1 -0.3,-0.2 -0.5,-0.3 1.6,0.7 3.3,0.6 4.9,0 1,-0.3 1.7,-1 2.2,-1.9 0.6,-1.1 0.5,-2.2 -0.1,-3.2 -0.9,-1.5 -2.4,-2.3 -4,-2.8 -1.6,-0.5 -3.1,-0.5 -4.6,0.2 -1,0.5 -1.6,1.5 -1.9,2.7 -0.3,1.6 0.4,2.7 1.5,3.7 0.4,0.3 0.8,0.6 1.2,0.9 -1.7,-0.4 -3.8,-1.3 -5.3,-2.2 0,0 1.1,1.6 4.1,3.1 3.1,1.6 6.2,1.4 7,1.5 -5.7,0.4 -10,-2.1 -13.3,-6.6 -2.8,-5 -3.4,-10.1 -0.9,-15.4 0.1,0 -1,4.2 0.1,7.5 0.1,0.3 0.6,3.7 3.5,5 0.9,0.2 1.8,0.1 2.7,-0.1 0.4,-0.1 2.1,-1 2.5,-1.4 2.5,-2 3.5,-4.5 4,-5.6 0.4,-1 0.5,-2.1 0.8,-3.1 -0.2,-0.1 0,-0.2 0.1,-0.2 0.5,0.4 1,0.9 1.5,1.3 0.8,0.6 1.7,1.1 2.6,1.3 -0.1,-0.1 -0.3,-0.2 -0.5,-0.3 -0.9,-0.5 -1.7,-1 -2.6,-1.5 -0.4,-0.3 -0.7,-0.6 -1,-0.8 z m 0.2,-0.9 c 1.1,1.3 2.5,2.2 4.1,2.7 -1.6,-0.6 -2.8,-1.7 -4.1,-2.7 z"
         id="path5867"
         inkscape:connector-curvature="0" />
      <path
         d="m 414.8,727 c 0.7,0.5 1,1.5 1.5,2.2 0.7,1.3 1.1,2.7 1.3,4.2 0,0 0,0.1 0,0.1 -0.2,-0.4 -0.3,-0.7 -0.6,-1.1 -0.8,-1.2 -2.2,-1.4 -3.4,-1.1 -0.5,0.1 -1,0.4 -1.5,0.5 -0.1,0.1 -0.3,0.1 -0.5,0.1 0,-0.1 0,-0.1 0,-0.1 1.3,-0.6 1.7,-2.5 1.4,-3.9 -0.3,-1.3 -1.1,-2.4 -2.1,-3.3 -0.1,-0.1 -0.2,-0.2 -0.3,-0.3 0.2,0.1 3,1.6 4.2,2.7 z"
         id="path5869"
         inkscape:connector-curvature="0" />
      <path
         d="m 402.9,729 c 0.4,0.4 0.8,0.8 1.2,1.2 1,1 2.2,1.8 3.6,2.3 0.1,0 0.2,0.1 0.3,0.1 0,0 0,0 0.1,0.1 -0.9,-0.1 -1.7,-0.5 -2.4,-1 -1,-0.6 -1.9,-1.4 -2.6,-2.4 -0.2,-0.1 -0.2,-0.2 -0.2,-0.3 l 0,0 z"
         id="path5871"
         inkscape:connector-curvature="0" />
      <path
         d="m 402.9,729.8 c 0.5,0.4 1,0.8 1.5,1.3 0.9,0.8 1.9,1.4 3.1,1.8 0.1,0 0.1,0.1 0.2,0.2 -0.2,-0.1 -0.4,-0.1 -0.7,-0.2 -0.2,-0.1 -0.5,-0.2 -0.7,-0.3 -1.2,-0.6 -2.2,-1.3 -3,-2.3 -0.2,-0.2 -0.3,-0.4 -0.4,-0.5 0,-0.1 0,0 0,0 z"
         id="path5873"
         inkscape:connector-curvature="0" />
      <path
         d="m 403.1,730.7 c 1.3,1.1 2.6,2.1 4.1,2.7 -1.6,-0.5 -3,-1.4 -4.1,-2.7 z"
         id="path5875"
         inkscape:connector-curvature="0" />
      <path
         d="m 402.9,731.6 c 0.4,0.3 0.7,0.5 1.1,0.8 0.9,0.5 1.7,1 2.6,1.5 0.2,0.1 0.3,0.2 0.5,0.3 -1,-0.2 -1.8,-0.7 -2.6,-1.3 -0.7,-0.4 -1.2,-0.9 -1.6,-1.3 l 0,0 z"
         id="path5877"
         inkscape:connector-curvature="0" />
    </g>
    <text
       y="475.39069"
       x="318.48245"
       transform="scale(0.98711703,1.0130511)"
       font-size="6.0381"
       id="text5879"
       style="font-size:5.96031094px;font-family:SegoeUI-Semibold">SFG</text>
    <path
       d="m 429.81245,358.36006 c 0.7,0.1 3.3,-0.1 2.1,-1.2 -0.6,-0.5 -1.3,-0.1 -2.3,-0.7 -1.8,-1.1 -3.2,-0.3 -4.3,-0.4 -0.9,-0.1 -7.6,-8.3 -7.6,-8.3 0,0 -3.3,-4.5 -4.4,-6.5 -0.5,-0.9 -2,-2.6 -1.2,-2.7 1.8,-0.3 1.5,-0.2 1.8,-0.3 l 0.8,-0.2 -1.5,-8.7 c -0.3,-1.1 -0.1,-1.9 -0.7,-5.6 0,0 -1.1,-3.8 -1.1,-3.8 0,0 -1.5,-8.4 -2.3,-9.6 -0.9,-1.3 -2.2,-2.4 -4.8,-3.6 -2.6,-1.2 -4.2,-2 -5.2,-2.99999 -1,-1 -3.3,-1 -4.5,-2 -1.2,-1 -3.2,-0.4 -3.7,-1.2 -0.3,-0.4 -0.5,-0.3 -1,-1.6 -0.1,-0.3 -0.7,-1.1 -2.6,-1.7 -0.8,-0.2 -0.6,-0.9 -1,-2.4 -0.3,-1.3 -0.4,-2.2 -0.5,-2.5 0,0 0,-0.1 0,-0.1 0.1,-0.2 0.5,-0.9 0.8,-1.6 0.3,-0.7 0.6,-2.1 0.6,-2.5 0,-0.1 0.1,-0.1 0.1,-0.2 0.3,-0.1 1,-0.4 1.4,-1 0.5,-0.7 1.1,-2.6 1.1,-3.2 0.1,-0.6 0,-1.3 -0.1,-1.6 -0.1,-0.2 -0.2,-0.4 -0.3,-0.6 -0.2,-0.3 -0.4,-0.4 -0.8,-0.2 -0.3,0.2 0,0.2 0.2,-0.4 0.1,-0.3 0,-1.1 0.1,-1.4 0.1,-0.4 0.3,0.1 0.3,-0.3 0,-0.6 0,-2.2 0,-3 0,-0.2 0.3,-0.4 0.3,-0.6 0,-0.8 -0.4,-2.3 -0.6,-2.6 -0.1,-0.1 -0.1,0.5 -0.3,0 -0.2,-0.3 -1.1,-2 -1.4,-2.4 -0.4,-0.5 -10.2,-2.5 -10.4,-2.5 -0.4,0.1 -0.5,0 -0.9,0.1 -0.6,0.2 -1.4,0.7 -1.9,1 -0.2,0.1 -0.6,0.2 -0.8,0.4 -0.6,0.4 -0.9,0.8 -1.3,1.3 -0.2,0.3 -0.4,0.6 -0.6,0.9 -0.1,0.2 -0.7,0.6 -0.8,0.8 -0.2,0.3 0.2,0.3 0,0.6 -0.1,0.3 -0.2,0.5 -0.3,0.8 -0.1,0.3 -0.2,0.6 -0.2,0.8 -0.1,0.3 -0.1,0.5 -0.1,0.6 0,0 0,0 0,0 0,0.1 -0.5,0.9 -0.9,1.2 -0.2,0.1 0.5,0.2 0.5,0.4 0,0.2 -0.2,1.9 -0.1,2.1 0,0.4 0.8,0.6 0.8,0.6 0,0 -1.2,0.4 0.2,0.6 0.1,0 -0.1,0.3 -0.3,0.2 -0.3,-0.1 -0.7,-0.2 -0.8,0.6 0,1.2 0.2,3.8 1.1,5.1 0.5,0.7 0.8,1 0.9,1.1 0.1,0 0.1,0.1 0.1,0.2 0,0.7 0.2,3.5 0.3,3.5 0.1,0 0.5,0.8 0.6,1 0,0 0,0.1 0,0.1 0,0.6 1.3,5.8 0.4,6.3 -0.2,0.2 -1.6,1 -1.7,3.1 0,1.4 -2.6,2 -4.2,2.6 -2.6,1.09999 -7.1,1.89999 -7.9,2.39999 -0.7,0.4 -1.1,0.4 -1.2,0.3 0,0 -0.1,0 -0.1,0 -0.3,0.1 -1.9,0.6 -2.9,1.3 -1.1,0.7 -2,1 -2.6,2.2 -0.5,1 -0.7,2.2 -0.8,2.6 0,0.1 -0.1,0.1 -0.1,0.2 -0.1,0 -0.3,0.2 -0.7,0.9 -0.6,1.1 -3.2,10.4 -4.9,14.7 -0.6,1.6 -1.1,2.8 -1.4,3.8 -0.5,1.6 -0.7,2.2 -0.7,2.2 0,0 -1.8,3.4 -1.6,6.7 0.2,3.3 0.6,6.6 1.2,10 0.6,3.3 1.9,9.3 2.3,11.4 0.4,2.1 0.5,3.7 0.7,4.7 0.2,1.1 0.2,2.9 0.2,2.9 0,0 0.1,0.6 0.8,1.6 0.8,1 1.3,1.6 1.3,1.6 0,0 0.9,-0.1 0.9,-0.6 0,-0.5 -0.3,-0.8 -0.7,-1.5 -0.2,-0.9 -0.7,-1.3 -0.6,-2.3 0,-0.4 0.1,-0.7 0.2,-0.9 0.1,-0.2 0.4,-0.2 0.4,0.1 0,0.3 0.1,0.6 0.2,1 0.2,0.8 0.6,2.4 0.6,2.4 0,0 0.5,2 0.9,2.7 0.3,0.6 0.7,0.7 0.8,0.7 0,0 0.1,0 0.1,0 0.2,0 0.6,-0.1 0.7,-0.5 0.1,-0.4 -0.4,-2.3 -0.4,-2.3 0,0 -0.5,-2.5 -0.5,-2.7 0,-0.1 0,-0.6 0,-1 0,-0.2 0.3,-0.3 0.4,-0.1 0.1,0.2 0.1,0.4 0.1,0.5 0,0.4 0.3,0.6 0.4,1.8 0.1,1.2 0.2,1.6 0.2,2.6 0,0.5 -0.1,0.8 -0.1,0.8 l 0.1,0.3 c 0,0 0.1,0.4 0.1,0.6 -0.1,0.3 -2.1,1.1 -1.6,1.5 0.5,0.3 -2.1,0.9 -2.1,0.9 l -0.6,2.2 c 0,0 -1.4,0.7 -1.8,1.8 -0.4,1.1 -10.1,10.3 -11.30001,12 -1.1,1.6 -4.2,4.7 -4.8,5.3 -0.6,0.7 0.4,0.3 -0.2,1.2 -0.6,0.9 -0.7,2.9 -0.7,3.1 0,0 0,0 0,0.1 0.1,0.2 0.5,2.1 0.4,3.3 -0.1,1.3 0,5.3 0,5.5 0,0 0,0 0,0 0,0.3 -0.8,7.3 -1,10.9 -0.2,3.7 -0.1,15.1 0.2,18 0.4,2.8 1.2,7.5 1,9.7 -0.2,2.2 -0.1,4.7 -0.4,5.7 -0.2,0.7 -0.4,1.2 -0.4,1.4 0,0.1 -0.1,0.1 -0.2,0.1 -0.5,-0.1 -2.2,-0.2 -2.9,0.5 -0.8,0.8 -1.6,1.7 -2.2,2.4 -0.5,0.6 -0.6,1.5 -0.6,1.7 0,0 0,0 0,0 0,0.1 0.1,0.7 0.6,0.8 0.5,0.1 -1.5,1.8 -1.8,2 0,0 0,0 -0.1,0 -0.3,0.1 -1.6,0.4 -3.3,1.1 -1.9,0.7 -4.4,1.6 -5.3,2.1 -0.8,0.4 -1.2,1.6 -1.3,1.8 0,0 0,0 0,0.1 0,0.2 0,1 0.5,1.4 0.5,0.5 0.4,1.2 0.6,1.3 0.1,0 0.9,0.6 1,0.2 0.1,-0.5 0.4,0.5 1.2,0.5 0.5,0 0.7,-0.2 0.9,-0.3 0.1,-0.1 0.2,-0.1 0.3,0 0.3,0.2 1.1,0.7 1.5,0.8 0.4,0.1 0.7,-0.1 0.8,-0.2 0.1,-0.1 0.2,0 0.3,0 0.2,0.1 0.5,0.3 0.9,0.4 0.5,0 1.1,-0.5 1.3,-0.7 0.1,-0.1 0.2,-0.1 0.3,0 l 1.1,0.6 c 0,0 0,0 0,0 0.1,0.1 0.6,0.5 1.1,0.5 0.5,0 1.8,-0.8 1.9,-0.9 0,0 0,0 0,0 0.1,-0.1 1.3,-1.3 2.8,-1.6 0.9,-0.2 1.3,-0.1 1.5,0 0.1,0 0.1,0.1 0.1,0.2 v 0.5 c 0,0.1 0.1,0.2 0.2,0.2 l 1.5,0.2 c 0.1,0 0.2,0 0.2,-0.1 l 0.3,-0.9 c 0,0 0,-0.2 0.6,0.1 0.5,0.2 0.2,0.8 0,1.1 -0.1,0.1 0,0.3 0.1,0.3 l 2.1,0.7 c 0.1,0 0.3,0 0.3,-0.2 0.1,-0.4 0.3,-1.1 1.00001,-1.1 1,-0.1 0.3,0.5 0.9,0.7 0.6,0.2 1.9,0.5 2.3,0 0.4,-0.5 2.6,-2.2 2.7,-3.1 0.1,-0.9 -0.2,-6.8 -0.2,-7.6 0,-0.8 -1.1,-0.6 -1.4,-1.6 -0.3,-0.9 -0.5,-3.7 -0.5,-3.9 0,0 0,0 0,0 l 1,-8.1 c 0,0 0,0 0,0 0,-0.2 0.6,-2.6 1.8,-9.9 1.3,-7.5 2,-5.5 2.2,-12.3 0.2,-6.8 0.4,-4.5 0,-10.3 -0.3,-4.3 -0.1,-3.4 -0.3,-4.3 0,-0.2 -0.1,-1.9 2.3,-0.6 2.4,1.4 5.1,4.2 5.9,3.7 0.9,-0.5 5.6,-5.9 6.3,-7.1 0.7,-1.1 9,-9.5 9,-9.5 l 5.1,-3.1 c 0,0 2.7,-1.9 2.5,1.8 1.2,10.6 1.3,16.7 1.3,16.7 0,0 0.2,17.8 1,17.7 2.9,-0.3 3.5,0.8 3.6,0.9 0,0 0,0 0,0 0,0.1 0.3,0.8 0.1,1.8 -0.1,1 -3.3,11.4 -3.2,13 0.1,1.6 0.4,9.8 0.1,11.7 -0.3,1.9 -0.6,9 -1,11.3 -0.4,2.3 -0.8,5.4 -1.4,6.3 -0.6,0.9 -1.3,1.3 -0.8,2.2 0.5,0.9 0,1.5 0,1.5 0,0 -0.9,1.3 -0.7,1.5 0.2,0.2 -0.2,4 0.3,4.7 0.5,0.7 0.8,2.6 1.1,3 0.2,0.3 0.6,0.5 0.8,0.6 0.1,0 0.1,0.1 0.1,0.2 0,0.5 -0.1,2.1 0.1,2.5 0.2,0.2 0.4,0.3 0.6,0.4 0.1,0 0.2,0.1 0.2,0.2 -0.1,0.3 -0.1,0.9 0,1 0,0 0.1,0 0.1,0 0.1,0 0.3,0.1 0.3,0.2 0,0.2 0.1,0.4 0.5,0.5 0.6,0.2 0.8,-0.1 0.8,-0.3 0,0.2 0.1,0.5 0.9,0.4 0.8,-0.1 0.9,-0.5 0.9,-0.7 0,0.1 0.1,0.2 0.2,0.5 0.2,0.5 0.9,0.5 1.2,0.5 0.1,0 0.2,-0.1 0.2,-0.2 0,-0.2 0,-0.5 0.3,-0.5 0.5,0 0.4,0.9 1.1,0.7 0.4,-0.1 0.6,-0.4 0.7,-0.6 0.1,-0.1 0.2,-0.2 0.3,-0.1 0.2,0.2 0.6,0.4 0.9,0.2 0.4,-0.2 0.9,-0.1 1.2,-0.1 0.1,0 0.2,0 0.2,-0.1 l 0.3,-0.8 c 0,0 0,0 0,-0.1 l 0.7,-0.7 c 0,0 0,0 0,0 0.1,-0.1 0.6,-0.5 0.5,-1.8 -0.2,-1.5 -1.6,-2.5 -1.7,-5.3 -0.2,-2.8 -1.3,-2.3 -1.3,-3.7 0,-1.4 0.6,-3.3 0.3,-4.4 -0.4,-1.2 -1,-1.1 -0.9,-2.2 0.1,-1.2 1.8,-9.1 2.4,-11.2 0.6,-2.2 4.5,-13.3 5.1,-16 0.5,-2.7 0.4,-13.6 0.5,-17.5 0,-0.6 2.4,0 4.7,-0.5 2.7,-0.5 1.2,-0.3 1.2,-0.3 0,0 0.8,-26.8 1,-28.2 0.2,-1.5 0.2,-11.6 0.4,-12.3 0.2,-0.6 -0.2,-1.9 -0.3,-2.1 0,0 0,0 0,-0.1 0,-0.6 -2,-14.9 -2,-14.9 l -1,-4.5 -0.7,-3 c 0,0 -0.4,-2.9 -0.1,-4.4 0.2,-1.2 -0.3,-2.8 -0.5,-3.5 0,-0.1 0.4,-0.3 0.6,-0.3 0.6,0 0.2,-1.6 0.3,-2.5 0.1,-1.2 -0.1,-3 0.4,-4.4 0.6,-1.4 -0.2,-7.9 0.8,-9.2 1,-1.2 0.5,-4.5 1.2,-6.4 0.7,-1.9 0.5,-2.4 0.5,-1.7 0.1,2 0,0.2 0.6,4.3 0.1,0.5 0.6,2.7 0.7,3.2 0.1,0.4 1.1,0.3 1.2,0.6 0.1,0.3 0.6,2 1.9,6.1 0.3,0.3 -1.5,-0.5 6.8,7.6 3.6,3.5 9.6,6 12.5,8.3 0.9,0.8 4.6,4.1 6.5,4 1.1,-0.1 0.5,-0.9 0.2,-1.3 -0.1,-0.2 1.5,0.7 1.3,-1.3 0,-0.2 -1.1,-0.6 -0.7,-0.5 0.6,0.1 1.4,-0.4 1.7,-1.2 0.3,-0.8 -0.6,-1.1 -0.9,-1.3 0,0 2,0.3 1.2,-1.9 -0.7,-1.4 -2,-1.5 -3.4,-2.1 z m -73.7,7.3 v 1 h -1 l -0.3,1.8 c 0,0 -0.7,-2.2 0,-3.6 0.7,-1.3 1.4,-1.4 1.4,-1.4 l 0.8,0.5 -0.9,1.7 z m 1.8,-21.8 c 0,0 0,4.8 -0.3,8 -0.1,0.5 -0.5,3.6 -0.5,3.6 l 0.5,0.8 c 0,0 -1.4,0.4 -1.2,0.4 -0.1,0.2 0,1.8 0.3,1.8 l -0.5,1.5 c -0.2,-0.1 -0.5,0 -0.6,0.2 -1,-0.5 -3.7,-2 -4.3,-2.9 -0.9,-1.3 0.5,-8.1 0.6,-18 0.1,-0.1 0.1,-0.1 0.1,-0.2 l 3.7,1.1 1.9,-6 0.4,2.7 -0.4,5.5 0.3,1.5 z"
       id="path5883"
       inkscape:connector-curvature="0" />
    <polygon
       transform="translate(-75.887549,-253.73994)"
       points="470.8,617.6 465.7,619.6 466.1,623.1 470.3,621.9 471,621.4 471.3,621 "
       id="polygon5885"
       style="fill:#ffffff" />
    <path
       d="m 387.81245,366.36006 0.5,3.1 c 0,0 -4.6,0.8 -6,0.7 -1.4,-0.1 -2.4,0.3 -2.4,0.3 v -3.8 l 7.9,-0.3 z"
       id="path5889"
       inkscape:connector-curvature="0"
       style="fill:#ffffff" />
    <path
       d="m 372.91245,366.66006 v 3.8 c 0,0 -3.8,-0.9 -4.9,-1.1 -1.2,-0.2 -3.7,-1 -3.6,-0.8 0.1,0.2 0.5,-2.8 0.5,-2.8 l 8,0.9 z"
       id="path5891"
       inkscape:connector-curvature="0"
       style="fill:#ffffff" />
    <path
       d="m 363.21245,365.76006 -0.6,1.6 -3.1,-1.2 -1.7,-1.2 v -1.1 c 0,0 3.7,1.1 4.5,1.1 0.8,0 0.9,0.8 0.9,0.8 z"
       id="path5893"
       inkscape:connector-curvature="0"
       style="fill:#ffffff" />
    <polygon
       transform="translate(-75.887549,-253.73994)"
       points="433.9,588.9 433.3,590.2 420.6,585 421,583.9 "
       id="polygon5895"
       style="fill:#ffffff" />
    <polyline
       transform="translate(-75.887549,-253.73994)"
       points="476.4,590.5 490.3,588.3 489.7,586.8 475.7,589.2    "
       id="polyline5897"
       style="fill:#ffffff" />
    <polygon
       transform="translate(-75.887549,-253.73994)"
       points="449.7,559.3 453.2,553.6 453.9,556.3 453.2,555.3 449.7,561.7 447.2,556.2 "
       id="polygon5899"
       style="fill:#ffffff" />
    <polygon
       transform="translate(-75.887549,-253.73994)"
       points="465.5,555.4 462.1,561.7 458.5,554.6 456.7,556.3 458.7,553.1 462.3,559.3 "
       id="polygon5901"
       style="fill:#ffffff" />
    <path
       d="m 381.61245,279.36007 c 0,0 -3.8,0.1 -6.9,-1.1 -3.5,-1.3 -3.2,-2.9 -4.5,-2.5 -1.4,0.5 -0.1,-3.4 -0.1,-3.4 0,0 0.8,-4 3,-4.4 2.2,-0.4 5.1,-0.9 7.9,-0.7 3.3,0.3 4.1,0 5.8,2.2 1.7,2.3 1.8,3.2 2.5,4.2 1.2,1.6 1.7,3.6 1.4,4.3 -0.3,0.7 -1.4,0.9 -1.4,0.9 0,0 -0.3,0.1 -2,0.2 -2.4,0.2 -3.6,0.4 -5.7,0.3 z"
       id="path5903"
       inkscape:connector-curvature="0" />
    <g
       transform="translate(-69.887549,-253.73994)"
       id="g5905">
      <path
         d="m 355.8,495.2 -3.8,0.6 -0.2,-1.2 c -0.1,-0.5 -0.2,-0.9 -0.3,-1 -0.1,-0.1 -0.3,-0.2 -0.5,-0.1 -0.2,0 -0.4,0.2 -0.5,0.4 -0.1,0.2 -0.1,0.5 0,0.9 0.1,0.5 0.2,0.9 0.4,1.1 0.2,0.2 0.6,0.5 1.3,0.8 2,0.8 3.2,1.5 3.8,2.1 0.6,0.6 1,1.7 1.2,3.2 0.2,1.1 0.2,2 0,2.5 -0.2,0.5 -0.6,1.1 -1.3,1.6 -0.7,0.5 -1.5,0.8 -2.5,0.9 -1.1,0.2 -2,0.1 -2.9,-0.2 -0.9,-0.3 -1.4,-0.7 -1.8,-1.3 -0.4,-0.6 -0.6,-1.5 -0.8,-2.7 l -0.2,-1 3.8,-0.6 0.3,1.9 c 0.1,0.6 0.2,1 0.3,1.1 0.1,0.2 0.3,0.2 0.6,0.2 0.3,0 0.5,-0.2 0.6,-0.4 0.1,-0.2 0.1,-0.6 0.1,-1 -0.1,-0.9 -0.4,-1.5 -0.7,-1.7 -0.3,-0.2 -1,-0.6 -2.1,-1.1 -1.1,-0.5 -1.9,-0.9 -2.2,-1.1 -0.4,-0.3 -0.7,-0.6 -1,-1.1 -0.3,-0.5 -0.5,-1.2 -0.6,-2 -0.2,-1.2 -0.2,-2.1 0.1,-2.7 0.3,-0.6 0.6,-1.1 1.3,-1.5 0.6,-0.4 1.4,-0.7 2.4,-0.8 1.1,-0.2 2,-0.1 2.8,0.1 0.8,0.2 1.4,0.6 1.7,1.1 0.3,0.5 0.6,1.3 0.8,2.6 l -0.1,0.4 z"
         id="path5907"
         inkscape:connector-curvature="0"
         style="fill:#ffffff" />
      <path
         d="m 361,490.6 0.3,2 1,-0.2 0.3,2 -1,0.2 1.2,6.8 c 0.1,0.8 0.3,1.3 0.4,1.4 0.1,0.1 0.5,0.1 1.1,0 l 0.4,2.1 -1.6,0.3 c -0.9,0.2 -1.5,0.2 -1.9,0.2 -0.4,0 -0.8,-0.1 -1.1,-0.3 -0.3,-0.2 -0.6,-0.5 -0.7,-0.8 -0.1,-0.3 -0.3,-1.1 -0.5,-2.4 l -1.1,-6.5 -0.8,0.1 -0.3,-2 0.8,-0.1 -0.3,-2 3.8,-0.8 z"
         id="path5909"
         inkscape:connector-curvature="0"
         style="fill:#ffffff" />
      <path
         d="m 367.8,496.2 -3.6,0.7 -0.2,-0.9 c -0.2,-1 -0.2,-1.8 -0.1,-2.3 0.1,-0.6 0.5,-1.1 1.1,-1.7 0.6,-0.6 1.5,-0.9 2.5,-1.1 1.3,-0.3 2.3,-0.2 3.1,0.1 0.8,0.3 1.3,0.8 1.5,1.5 0.3,0.6 0.6,2 1,4.1 l 1.2,6.4 -3.8,0.7 -0.2,-1.1 c -0.1,0.5 -0.4,0.9 -0.7,1.2 -0.3,0.3 -0.8,0.5 -1.3,0.6 -0.7,0.1 -1.3,0.1 -2,-0.2 -0.6,-0.3 -1.1,-1 -1.3,-2.3 l -0.2,-1 c -0.2,-1 -0.2,-1.6 0.1,-2 0.3,-0.4 0.9,-0.9 2,-1.6 1.2,-0.7 1.8,-1.2 1.8,-1.4 0.1,-0.2 0,-0.5 -0.1,-1.1 -0.1,-0.7 -0.3,-1.1 -0.4,-1.3 -0.1,-0.2 -0.3,-0.3 -0.6,-0.2 -0.3,0.1 -0.4,0.2 -0.4,0.3 0,0.1 0,0.6 0.2,1.3 l 0.4,1.3 z m 1.5,1.5 c -0.5,0.6 -0.8,1 -0.9,1.3 -0.1,0.3 0,0.8 0.1,1.4 0.1,0.7 0.3,1.1 0.4,1.3 0.1,0.2 0.3,0.2 0.6,0.2 0.2,0 0.4,-0.2 0.4,-0.3 0,-0.2 0,-0.6 -0.1,-1.2 l -0.5,-2.7 z"
         id="path5911"
         inkscape:connector-curvature="0"
         style="fill:#ffffff" />
      <path
         d="m 381.3,488.2 1,13.1 -5,1.1 -4.7,-12.2 3.4,-0.7 3.1,9 c -0.1,-0.7 -0.3,-2.4 -0.6,-5.1 -0.2,-1.5 -0.4,-2.9 -0.6,-4.4 l 3.4,-0.8 z"
         id="path5913"
         inkscape:connector-curvature="0"
         style="fill:#ffffff" />
      <path
         d="m 386.5,492.1 -3.6,0.9 -0.2,-0.8 c -0.2,-1 -0.3,-1.8 -0.2,-2.3 0.1,-0.6 0.4,-1.2 1,-1.7 0.6,-0.5 1.4,-1 2.5,-1.3 1.3,-0.3 2.3,-0.3 3.1,0 0.8,0.3 1.3,0.8 1.6,1.4 0.3,0.6 0.7,2 1.2,4.1 l 1.5,6.3 -3.7,0.9 -0.3,-1.1 c -0.1,0.5 -0.3,0.9 -0.7,1.2 -0.3,0.3 -0.7,0.5 -1.2,0.7 -0.7,0.2 -1.3,0.1 -2,-0.1 -0.7,-0.2 -1.1,-1 -1.4,-2.3 l -0.3,-1 c -0.2,-0.9 -0.2,-1.6 0,-2 0.2,-0.4 0.9,-1 1.9,-1.7 1.1,-0.8 1.7,-1.3 1.8,-1.5 0.1,-0.2 0,-0.6 -0.1,-1.1 -0.2,-0.7 -0.3,-1.1 -0.5,-1.2 -0.1,-0.2 -0.3,-0.2 -0.6,-0.2 -0.3,0.1 -0.4,0.2 -0.4,0.4 0,0.2 0.1,0.6 0.2,1.3 l 0.4,1.1 z m 1.7,1.5 c -0.5,0.6 -0.8,1.1 -0.8,1.4 0,0.3 0,0.8 0.2,1.3 0.2,0.7 0.3,1.1 0.4,1.2 0.1,0.2 0.3,0.2 0.6,0.2 0.2,-0.1 0.4,-0.2 0.4,-0.3 0,-0.2 0,-0.6 -0.2,-1.2 l -0.6,-2.6 z"
         id="path5915"
         inkscape:connector-curvature="0"
         style="fill:#ffffff" />
      <path
         d="m 395.9,484.5 0.3,1.2 c 0.1,-0.5 0.4,-1 0.7,-1.3 0.3,-0.3 0.8,-0.6 1.3,-0.7 0.7,-0.2 1.2,-0.2 1.7,0 0.5,0.2 0.9,0.5 1.1,0.9 0.3,0.4 0.5,1.2 0.8,2.3 l 2.4,8.7 -3.8,1.1 -2.4,-8.6 c -0.2,-0.9 -0.4,-1.4 -0.5,-1.5 -0.1,-0.2 -0.3,-0.2 -0.5,-0.2 -0.3,0.1 -0.4,0.2 -0.4,0.5 0,0.3 0.1,0.8 0.4,1.8 l 2.4,8.4 -3.8,1.1 -3.5,-12.5 3.8,-1.2 z"
         id="path5917"
         inkscape:connector-curvature="0"
         style="fill:#ffffff" />
      <path
         d="m 410.9,479.9 3,9.5 c 0.4,1.3 0.6,2.1 0.7,2.5 0.1,0.4 0,0.9 -0.2,1.4 -0.2,0.5 -0.6,1 -1.2,1.4 -0.6,0.4 -1.3,0.8 -2.3,1.1 -1.2,0.4 -2.2,0.5 -3.1,0.3 -0.9,-0.2 -1.5,-0.9 -1.9,-2 l 3.6,-1.2 c 0.2,0.5 0.5,0.8 0.9,0.6 0.3,-0.1 0.4,-0.2 0.5,-0.4 0.1,-0.2 0,-0.6 -0.2,-1.1 l -0.3,-0.9 c -0.2,0.4 -0.5,0.7 -0.8,1 -0.3,0.3 -0.7,0.5 -1,0.6 -0.7,0.2 -1.3,0.3 -1.8,0.1 -0.5,-0.2 -0.9,-0.4 -1.2,-0.8 -0.3,-0.4 -0.6,-1 -0.8,-1.8 l -1.4,-4.5 c -0.4,-1.2 -0.4,-2.1 -0.2,-2.7 0.2,-0.6 0.8,-1.1 1.7,-1.4 0.5,-0.2 0.9,-0.2 1.4,-0.1 0.5,0.1 0.9,0.2 1.3,0.5 l 0,-1 3.3,-1.1 z m -2.7,4.5 c -0.2,-0.6 -0.3,-0.9 -0.4,-1 -0.1,-0.1 -0.3,-0.2 -0.5,-0.1 -0.2,0.1 -0.3,0.2 -0.4,0.4 0,0.2 0,0.6 0.2,1.1 l 1.3,4.1 c 0.2,0.6 0.3,0.9 0.4,1 0.1,0.1 0.3,0.2 0.5,0.1 0.2,-0.1 0.4,-0.2 0.4,-0.5 0,-0.2 -0.1,-0.7 -0.3,-1.4 l -1.2,-3.7 z"
         id="path5919"
         inkscape:connector-curvature="0"
         style="fill:#ffffff" />
      <path
         d="m 423.3,482.6 -4.8,1.8 1,2.6 c 0.2,0.5 0.4,0.9 0.5,1 0.1,0.1 0.3,0.2 0.5,0.1 0.3,-0.1 0.4,-0.3 0.4,-0.5 0,-0.2 -0.1,-0.7 -0.3,-1.3 l -0.6,-1.6 3.5,-1.3 0.3,0.9 c 0.3,0.8 0.4,1.3 0.5,1.8 0.1,0.4 0,1 -0.2,1.5 -0.2,0.6 -0.5,1.1 -0.9,1.5 -0.4,0.4 -1.1,0.8 -1.9,1.1 -0.8,0.3 -1.5,0.4 -2.2,0.4 -0.7,0 -1.3,-0.1 -1.7,-0.4 -0.5,-0.3 -0.9,-0.6 -1.2,-1 -0.3,-0.4 -0.6,-1.1 -1,-2 l -1.3,-3.5 c -0.4,-1.1 -0.6,-2 -0.5,-2.7 0.1,-0.7 0.4,-1.4 0.9,-1.9 0.5,-0.6 1.2,-1 2.1,-1.3 1,-0.4 2,-0.5 2.8,-0.4 0.8,0.1 1.5,0.5 2,1 0.5,0.5 1,1.4 1.4,2.6 l 0.7,1.6 z m -4.5,-0.6 -0.3,-0.9 c -0.2,-0.6 -0.4,-1 -0.6,-1.2 -0.2,-0.2 -0.3,-0.2 -0.5,-0.1 -0.3,0.1 -0.4,0.2 -0.4,0.4 0,0.2 0.1,0.6 0.4,1.3 l 0.3,0.9 1.1,-0.4 z"
         id="path5921"
         inkscape:connector-curvature="0"
         style="fill:#ffffff" />
      <path
         d="m 426,474.1 0.5,1.6 c 0.1,-1.3 0.6,-2.3 1.5,-2.8 l 1.8,4.2 c -0.7,0.3 -1.1,0.6 -1.4,0.9 -0.2,0.3 -0.3,0.6 -0.3,1 0.1,0.4 0.3,1.1 0.8,2.3 l 2,4.7 -3.6,1.5 -5.1,-11.9 3.8,-1.5 z"
         id="path5923"
         inkscape:connector-curvature="0"
         style="fill:#ffffff" />
      <path
         d="m 458.5,471.8 6.4,2.7 -1.2,2.9 -2.6,-1.1 -1.2,2.8 2.3,1 -1.2,2.8 -2.3,-1 -2.5,6.1 -3.8,-1.6 6.1,-14.6 z"
         id="path5925"
         inkscape:connector-curvature="0"
         style="fill:#ffffff" />
      <path
         d="m 471.7,485 -1.1,3 c -0.4,1.1 -0.8,1.9 -1.1,2.3 -0.3,0.5 -0.7,0.9 -1.2,1.2 -0.5,0.3 -1.1,0.5 -1.8,0.5 -0.6,0 -1.3,-0.1 -2.1,-0.4 -0.8,-0.3 -1.5,-0.7 -2,-1 -0.5,-0.3 -0.8,-0.8 -1,-1.3 -0.2,-0.5 -0.2,-1 -0.2,-1.6 0.1,-0.6 0.3,-1.4 0.7,-2.4 l 1.2,-3.1 c 0.4,-1.1 0.9,-2 1.4,-2.5 0.5,-0.5 1.1,-0.9 1.9,-1 0.8,-0.1 1.7,0 2.6,0.3 0.8,0.3 1.5,0.7 2,1.2 0.5,0.5 0.8,1 1,1.5 0.2,0.5 0.2,1 0.2,1.5 0,0.2 -0.2,0.9 -0.5,1.8 z m -3.3,-2.3 c 0.2,-0.6 0.3,-1 0.3,-1.2 0,-0.2 -0.1,-0.3 -0.3,-0.4 -0.2,-0.1 -0.4,-0.1 -0.5,0.1 -0.1,0.1 -0.3,0.5 -0.5,1.1 l -2,5.5 c -0.2,0.6 -0.3,1 -0.3,1.2 0,0.2 0.1,0.3 0.3,0.4 0.2,0.1 0.4,0.1 0.5,-0.1 0.1,-0.1 0.3,-0.5 0.5,-1 l 2,-5.6 z"
         id="path5927"
         inkscape:connector-curvature="0"
         style="fill:#ffffff" />
      <path
         d="m 479.4,480.9 -0.7,1.9 1,0.3 -0.7,1.9 -1,-0.3 -2.2,6.6 c -0.3,0.8 -0.4,1.3 -0.3,1.4 0.1,0.1 0.4,0.3 1,0.5 l -0.7,2 -1.5,-0.5 c -0.9,-0.3 -1.4,-0.5 -1.8,-0.7 -0.3,-0.2 -0.6,-0.5 -0.8,-0.8 -0.2,-0.3 -0.3,-0.7 -0.2,-1.1 0,-0.4 0.3,-1.1 0.7,-2.4 l 2.1,-6.2 -0.8,-0.3 0.7,-1.9 0.8,0.3 0.7,-1.9 3.7,1.2 z"
         id="path5929"
         inkscape:connector-curvature="0"
         style="fill:#ffffff" />
      <path
         d="m 485.6,481.7 -1.1,3.6 c 0.4,-0.3 0.9,-0.4 1.3,-0.5 0.4,-0.1 0.9,0 1.3,0.1 0.5,0.2 0.9,0.4 1.3,0.7 0.3,0.3 0.6,0.6 0.7,0.9 0.1,0.3 0.1,0.7 0.1,1 0,0.3 -0.2,0.9 -0.5,1.8 l -1.7,5.6 c -0.3,0.9 -0.5,1.6 -0.8,2 -0.3,0.4 -0.7,0.7 -1.2,0.9 -0.5,0.2 -1.1,0.2 -1.7,0 -0.4,-0.1 -0.8,-0.4 -1.1,-0.7 -0.3,-0.3 -0.6,-0.7 -0.8,-1.2 l -0.5,0.9 -3.5,-1.1 4.6,-15.1 3.6,1.1 z m -0.8,6.6 c 0.2,-0.6 0.3,-1.1 0.3,-1.3 0,-0.2 -0.2,-0.4 -0.4,-0.4 -0.2,-0.1 -0.4,0 -0.5,0.1 -0.1,0.2 -0.3,0.6 -0.5,1.3 l -1.6,5.3 c -0.2,0.7 -0.3,1.1 -0.3,1.3 0,0.2 0.1,0.4 0.4,0.4 0.2,0.1 0.4,0 0.6,-0.1 0.1,-0.2 0.3,-0.6 0.5,-1.4 l 1.5,-5.2 z"
         id="path5931"
         inkscape:connector-curvature="0"
         style="fill:#ffffff" />
      <path
         d="m 493.4,492.1 -3.6,-0.9 0.2,-0.8 c 0.3,-1 0.6,-1.7 0.9,-2.2 0.4,-0.5 0.9,-0.8 1.7,-1 0.8,-0.2 1.7,-0.2 2.8,0.1 1.3,0.3 2.2,0.8 2.7,1.5 0.5,0.6 0.8,1.3 0.7,2 -0.1,0.7 -0.3,2.1 -0.9,4.2 l -1.7,6.3 -3.7,-1 0.3,-1.1 c -0.4,0.4 -0.7,0.6 -1.2,0.8 -0.4,0.1 -0.9,0.1 -1.4,0 -0.7,-0.2 -1.2,-0.5 -1.7,-1 -0.5,-0.5 -0.5,-1.4 -0.2,-2.7 l 0.3,-1 c 0.2,-0.9 0.6,-1.5 1,-1.8 0.4,-0.3 1.2,-0.5 2.5,-0.6 1.4,-0.2 2.1,-0.3 2.3,-0.5 0.1,-0.1 0.3,-0.5 0.4,-1 0.2,-0.7 0.2,-1.1 0.2,-1.3 0,-0.2 -0.2,-0.4 -0.4,-0.4 -0.3,-0.1 -0.4,0 -0.5,0.1 -0.1,0.2 -0.3,0.6 -0.4,1.3 l -0.3,1 z m 0.7,2.1 c -0.7,0.3 -1.2,0.6 -1.4,0.8 -0.2,0.2 -0.3,0.7 -0.5,1.3 -0.2,0.6 -0.2,1.1 -0.2,1.3 0,0.2 0.2,0.4 0.4,0.4 0.2,0.1 0.4,0 0.5,-0.1 0.1,-0.1 0.3,-0.5 0.4,-1.1 l 0.8,-2.6 z"
         id="path5933"
         inkscape:connector-curvature="0"
         style="fill:#ffffff" />
      <path
         d="m 506,487.2 -3.6,15.4 -4,-0.9 3.6,-15.4 4,0.9 z"
         id="path5935"
         inkscape:connector-curvature="0"
         style="fill:#ffffff" />
      <path
         d="m 511.7,488.4 -3.3,15.5 -4,-0.9 3.3,-15.5 4,0.9 z"
         id="path5937"
         inkscape:connector-curvature="0"
         style="fill:#ffffff" />
      <path
         d="m 521.7,493.2 -1.8,9.8 c -0.2,1.3 -0.4,2.2 -0.6,2.6 -0.1,0.4 -0.4,0.7 -0.9,1.1 -0.5,0.4 -1,0.6 -1.7,0.7 -0.7,0.1 -1.6,0.1 -2.6,-0.1 -1.2,-0.2 -2.2,-0.6 -2.9,-1.2 -0.7,-0.6 -0.9,-1.5 -0.7,-2.7 l 3.8,0.7 c -0.1,0.6 0,0.9 0.5,1 0.3,0.1 0.5,0 0.6,-0.1 0.1,-0.2 0.2,-0.5 0.3,-1.1 l 0.2,-1 c -0.4,0.2 -0.8,0.4 -1.2,0.5 -0.4,0.1 -0.8,0.1 -1.2,0 -0.7,-0.1 -1.2,-0.4 -1.6,-0.7 -0.4,-0.4 -0.6,-0.8 -0.7,-1.3 -0.1,-0.5 0,-1.2 0.1,-2 l 0.9,-4.6 c 0.2,-1.2 0.6,-2 1.1,-2.5 0.5,-0.4 1.2,-0.6 2.1,-0.4 0.5,0.1 0.9,0.3 1.3,0.5 0.4,0.3 0.7,0.6 0.9,1.1 l 0.5,-0.9 3.6,0.6 z m -4.6,2.7 c 0.1,-0.6 0.1,-1 0.1,-1.1 0,-0.2 -0.2,-0.3 -0.4,-0.3 -0.2,0 -0.4,0 -0.5,0.2 -0.1,0.2 -0.2,0.5 -0.3,1.1 l -0.8,4.3 c -0.1,0.6 -0.1,0.9 -0.1,1.1 0,0.2 0.2,0.3 0.4,0.3 0.3,0 0.4,0 0.6,-0.2 0.2,-0.2 0.2,-0.6 0.4,-1.4 l 0.6,-4 z"
         id="path5939"
         inkscape:connector-curvature="0"
         style="fill:#ffffff" />
      <path
         d="m 531.5,499.4 -0.5,3.1 c -0.2,1.2 -0.4,2 -0.6,2.5 -0.2,0.5 -0.5,1 -1,1.4 -0.5,0.4 -1,0.7 -1.6,0.8 -0.6,0.1 -1.3,0.1 -2.1,0 -0.9,-0.1 -1.6,-0.3 -2.1,-0.6 -0.6,-0.3 -1,-0.6 -1.3,-1.1 -0.3,-0.5 -0.4,-0.9 -0.5,-1.5 -0.1,-0.6 0,-1.4 0.2,-2.5 l 0.5,-3.3 c 0.2,-1.2 0.5,-2.1 0.8,-2.7 0.4,-0.6 0.9,-1.1 1.6,-1.4 0.7,-0.3 1.6,-0.4 2.7,-0.2 0.9,0.1 1.6,0.4 2.2,0.7 0.6,0.4 1,0.8 1.3,1.2 0.3,0.5 0.4,0.9 0.5,1.4 0.1,0.6 0,1.3 -0.1,2.2 z m -3.7,-1.6 c 0.1,-0.7 0.1,-1.1 0.1,-1.3 0,-0.2 -0.2,-0.3 -0.4,-0.3 -0.2,0 -0.4,0 -0.5,0.2 -0.1,0.2 -0.2,0.6 -0.3,1.2 l -0.9,5.8 c -0.1,0.6 -0.1,1 -0.1,1.2 0,0.2 0.2,0.3 0.4,0.3 0.2,0 0.4,0 0.5,-0.2 0.1,-0.2 0.2,-0.5 0.3,-1.1 l 0.9,-5.8 z"
         id="path5941"
         inkscape:connector-curvature="0"
         style="fill:#ffffff" />
      <path
         d="m 538.2,492.7 -1.9,15.7 -4,-0.5 1.9,-15.7 4,0.5 z"
         id="path5943"
         inkscape:connector-curvature="0"
         style="fill:#ffffff" />
      <path
         d="m 545,493.4 -0.2,2 c -0.8,-0.1 -1.3,-0.1 -1.4,0 -0.2,0.1 -0.2,0.3 -0.3,0.6 l 0,0.4 1.7,0.2 -0.2,2 -0.9,-0.1 -1,10.5 -3.9,-0.4 1,-10.5 -0.8,-0.1 0.2,-2 0.8,0.1 c 0.1,-0.8 0.2,-1.4 0.3,-1.7 0.1,-0.3 0.3,-0.5 0.5,-0.7 0.2,-0.2 0.6,-0.3 1,-0.4 0.4,-0.1 1.1,-0.1 2,0 l 1.2,0.1 z"
         id="path5945"
         inkscape:connector-curvature="0"
         style="fill:#ffffff" />
    </g>
    <ellipse
       transform="translate(-75.887549,-253.73994)"
       cx="490.89999"
       cy="731.29999"
       rx="19.1"
       ry="5.8000002"
       id="ellipse5947"
       sodipodi:cx="490.89999"
       sodipodi:cy="731.29999"
       sodipodi:rx="19.1"
       sodipodi:ry="5.8000002"
       d="m 509.99999,731.29999 c 0,3.20325 -8.55136,5.8 -19.1,5.8 -10.54864,0 -19.1,-2.59675 -19.1,-5.8 0,-3.20325 8.55136,-5.8 19.1,-5.8 10.54864,0 19.1,2.59675 19.1,5.8 z" />
    <text
       y="238.9687"
       x="580.34412"
       transform="matrix(0.81377401,0.58118144,-0.58118144,0.81377401,0,0)"
       font-size="13"
       id="text5949"
       style="font-size:13.00041485px;fill:#ffffff;font-family:MyriadPro-Regular">Est.</text>
    <text
       y="671.42688"
       x="-19.213894"
       transform="matrix(0.79292501,-0.60931923,0.60931923,0.79292501,0,0)"
       font-size="14"
       id="text5951"
       style="font-size:13.99955845px;fill:#ededec;font-family:MyriadPro-Regular">2014</text>
    <polygon
       transform="translate(-75.887549,-253.73994)"
       points="503.8,614.1 504,614.8 504.4,615.1 504.9,615.3 505.2,615.4 504.2,615.2 503.8,615.3 503.5,615.8 503.6,616.1 503.7,616.5 504.1,616.7 504.9,617 505.3,617.4 504.4,617 503.3,616.9 503.1,617.2 503.3,617.8 504,618.3 505,618.6 505.5,618.6 506.1,618.9 506.5,619.4 506.8,618.9 506.3,618.2 506.8,617.7 507.2,613.8 506.9,612.8 506,612.4 505.4,612.3 505,612.6 504.8,613 504.9,613.3 505.2,613.6 505.8,614 505.1,613.7 504.6,613.4 504,613.6 "
       id="polygon5953" />
    <path
       d="m 427.32909,476.39868 0,-174.40001 c 0,-0.9 0.7,-1.6 1.6,-1.7 2.9,-0.1 9.4,0.1 15.1,3.8 4.9,3.2 10.3,3.7 13.5,3.7 1.3,0 2.1,1.4 1.4,2.5 -1.6,2.6 -5,6.2 -11,6.5 -7.3,0.3 -13.4,1.8 -15.9,2.5 -0.7,0.2 -1.2,0.8 -1.2,1.6 l 0,57.7 0,97.80001 c 0,1 -0.9,1.8 -1.9,1.6 l 0,0 c -1,-0.1 -1.6,-0.8 -1.6,-1.6 z"
       id="path5887"
       inkscape:connector-curvature="0"
       style="fill:#030000" />
  </g>
</svg>
