<?xml version="1.0" encoding="UTF-8" standalone="no"?>
<!-- Created with Inkscape (http://www.inkscape.org/) -->

<svg
   xmlns:dc="http://purl.org/dc/elements/1.1/"
   xmlns:cc="http://creativecommons.org/ns#"
   xmlns:rdf="http://www.w3.org/1999/02/22-rdf-syntax-ns#"
   xmlns:svg="http://www.w3.org/2000/svg"
   xmlns="http://www.w3.org/2000/svg"
   xmlns:sodipodi="http://sodipodi.sourceforge.net/DTD/sodipodi-0.dtd"
   xmlns:inkscape="http://www.inkscape.org/namespaces/inkscape"
   id="svg2985"
   version="1.1"
   inkscape:version="0.48.5 r10040"
   width="769.86"
   height="470.65875"
   xml:space="preserve"
   sodipodi:docname="Omega Logo 2012 with spacing.pdf"><metadata
     id="metadata2991"><rdf:RDF><cc:Work
         rdf:about=""><dc:format>image/svg+xml</dc:format><dc:type
           rdf:resource="http://purl.org/dc/dcmitype/StillImage" /><dc:title></dc:title></cc:Work></rdf:RDF></metadata><defs
     id="defs2989"><clipPath
       clipPathUnits="userSpaceOnUse"
       id="clipPath2999"><path
         d="m 0,595.276 841.89,0 L 841.89,0 0,0 0,595.276 z"
         id="path3001" /></clipPath></defs><sodipodi:namedview
     pagecolor="#ffffff"
     bordercolor="#666666"
     borderopacity="1"
     objecttolerance="10"
     gridtolerance="10"
     guidetolerance="10"
     inkscape:pageopacity="0"
     inkscape:pageshadow="2"
     inkscape:window-width="1747"
     inkscape:window-height="1127"
     id="namedview2987"
     showgrid="false"
     inkscape:zoom="1.6020099"
     inkscape:cx="384.92999"
     inkscape:cy="235.32938"
     inkscape:window-x="0"
     inkscape:window-y="0"
     inkscape:window-maximized="0"
     inkscape:current-layer="g2993" /><g
     id="g2993"
     inkscape:groupmode="layer"
     inkscape:label="Omega Logo 2012 with spacing"
     transform="matrix(1.25,0,0,-1.25,-141.52,606.41375)"><g
       id="g2995"><g
         id="g2997"
         clip-path="url(#clipPath2999)"><g
           id="g3003"
           transform="translate(234.104,230.249)"><path
             d="m 0,0 c -10.656,0 -12.096,10.513 -12.096,18.361 0,7.848 1.44,18.215 12.096,18.215 10.656,0 12.096,-10.367 12.096,-18.215 C 12.096,10.513 10.656,0 0,0 m 0,57.025 c -27.792,0 -40.32,-18.216 -40.32,-38.664 0,-20.52 12.528,-38.881 40.32,-38.881 27.72,0 40.248,18.361 40.248,38.881 C 40.248,38.809 27.72,57.025 0,57.025"
             style="fill:#231f20;fill-opacity:1;fill-rule:evenodd;stroke:none"
             id="path3005" /></g><g
           id="g3007"
           transform="translate(277.9521,211.6016)"><path
             d="m 0,0 28.152,0 0,39.96 c 0,7.704 2.448,13.248 9.576,13.248 8.496,0 9.216,-6.264 9.216,-13.248 l 0,-39.96 28.224,0 0,39.96 c 0,7.704 2.376,13.248 9.504,13.248 8.568,0 9.216,-6.264 9.216,-13.248 l 0,-39.96 28.152,0 0,50.688 c 0,11.952 -6.408,24.985 -25.344,24.985 C 78.408,75.673 72.72,65.017 71.568,64.152 68.184,71.568 59.616,75.673 51.624,75.673 41.4,75.673 33.12,72.576 27.432,64.009 l -0.216,0 0,9.863 L 0,73.872 0,0 z"
             style="fill:#231f20;fill-opacity:1;fill-rule:evenodd;stroke:none"
             id="path3009" /></g><g
           id="g3011"
           transform="translate(443.9121,269.2021)"><path
             d="m 0,0 1.08,0 c 7.272,0 12.384,-5.545 12.384,-12.313 l -13.464,0 -13.464,0 C -12.24,-4.752 -7.704,-0.36 0,0 m 0.792,-41.4 c -0.288,0 -0.504,0 -0.792,0.072 -8.352,0.287 -12.889,6.191 -13.607,14.328 L 0,-27 40.464,-27 C 40.464,1.224 28.224,17.496 0,18.072 l -1.512,0 c -23.328,0 -38.952,-17.496 -38.952,-38.953 0,-24.336 17.28,-38.231 40.464,-38.592 l 0.936,0 c 16.776,0 32.328,7.416 38.016,23.328 l -26.352,0 C 10.296,-39.672 5.328,-41.4 0.792,-41.4"
             style="fill:#231f20;fill-opacity:1;fill-rule:evenodd;stroke:none"
             id="path3013" /></g><g
           id="g3015"
           transform="translate(528.2959,234.0654)"><path
             d="m 0,0 -0.576,0 c -9.648,0.36 -12.096,9.864 -12.096,18.072 0,7.848 3.96,14.688 11.952,14.688 l 0.144,0 C 7.56,32.688 11.521,26.28 11.521,18.217 11.521,10.008 10.368,0 0,0 m 10.8,51.408 0,-9 -0.287,0 c -2.16,4.969 -6.265,8.065 -11.089,9.576 -2.592,0.864 -5.4,1.225 -8.28,1.225 -21.096,0 -32.04,-16.057 -32.04,-35.281 0,-19.728 9.864,-36 31.608,-36 3.096,0 6.049,0.504 8.712,1.512 4.464,1.656 8.208,4.609 11.089,8.785 l 0.287,0 0,-6.84 c 0,-6.121 -2.016,-16.92 -11.088,-16.92 l -0.288,0 c -3.456,0.143 -6.336,2.879 -7.991,5.399 -0.577,0.792 -1.297,1.8 -1.584,2.521 l -27.866,0 c 2.521,-19.513 20.233,-24.408 37.441,-24.625 l 1.08,0 c 34.632,0 38.448,20.664 38.448,35.281 l 0,64.367 -28.152,0 z"
             style="fill:#231f20;fill-opacity:1;fill-rule:evenodd;stroke:none"
             id="path3017" /></g><g
           id="g3019"
           transform="translate(618.0801,237.9541)"><path
             d="m 0,0 c -0.36,-7.129 -4.607,-10.944 -10.296,-11.521 -0.505,0 -1.009,-0.071 -1.513,-0.071 -5.111,0 -8.783,3.455 -8.783,6.84 0,5.039 3.24,6.552 9.504,7.992 0.287,0.072 0.504,0.144 0.792,0.144 3.6,0.864 7.128,1.8 10.296,3.384 L 0,0 z m 27.072,-9.864 0,30.311 c 0,14.256 0.287,28.873 -34.992,28.873 l -2.376,0 C -27.145,49.031 -45.145,45 -45.936,25.127 l 26.135,0 c 0.145,3.025 1.729,7.201 9.505,7.561 l 1.08,0 c 4.536,0 9.216,-1.8 9.216,-6.84 0,-4.68 -3.816,-5.832 -7.632,-6.553 -0.864,-0.143 -1.728,-0.287 -2.664,-0.432 -14.832,-2.231 -39.097,-2.736 -39.097,-24.695 0,-15.553 11.809,-22.393 26.065,-22.393 4.536,0 9,0.504 13.032,1.872 4.032,1.369 7.776,3.529 10.728,6.985 l 0.288,0 c -0.144,-2.017 0.288,-4.968 1.009,-6.985 l 28.727,0 c -3.097,4.681 -3.384,10.945 -3.384,16.489"
             style="fill:#231f20;fill-opacity:1;fill-rule:evenodd;stroke:none"
             id="path3021" /></g><g
           id="g3023"
           transform="translate(292.9277,348.6177)"><path
             d="m 0,0 65.88,0 -14.328,-50.976 -65.88,0 L 0,0 z"
             style="fill:#9fded3;fill-opacity:1;fill-rule:evenodd;stroke:none"
             id="path3025" /></g><g
           id="g3027"
           transform="translate(352.3281,378.0659)"><path
             d="m 0,0 77.04,0 -21.888,-80.136 -51.408,0 16.416,60.12 -25.776,0.072 L 0,0 z"
             style="fill:#fbc176;fill-opacity:1;fill-rule:evenodd;stroke:none"
             id="path3029" /></g><g
           id="g3031"
           transform="translate(421.8799,407.5859)"><path
             d="m 0,0 77.112,0 -28.656,-109.656 -51.48,0 23.255,89.712 -25.847,0 L 0,0 z"
             style="fill:#7994c9;fill-opacity:1;fill-rule:evenodd;stroke:none"
             id="path3033" /></g><g
           id="g3035"
           transform="translate(362.1201,319.8179)"><path
             d="m 0,0 c 11.232,2.664 22.248,5.832 31.752,9.432 8.208,3.096 16.56,7.416 25.416,12.024 l -11.808,-43.272 -51.408,0 L 0,0 z"
             style="fill:#f78d11;fill-opacity:1;fill-rule:evenodd;stroke:none"
             id="path3037" /></g><g
           id="g3039"
           transform="translate(281.2642,306.6416)"><path
             d="M 0,0 C 0,0 34.272,3.384 68.76,10.728 L 63.216,-9 -2.664,-9 0,0 z"
             style="fill:#0fafa9;fill-opacity:1;fill-rule:evenodd;stroke:none"
             id="path3041" /></g><g
           id="g3043"
           transform="translate(431.3125,345.8818)"><path
             d="m 0,0 c 32.399,17.928 62.207,40.68 62.207,40.68 l -23.184,-88.56 -51.48,0 L 0,0 z"
             style="fill:#15569c;fill-opacity:1;fill-rule:evenodd;stroke:none"
             id="path3045" /></g><g
           id="g3047"
           transform="translate(421.8799,407.5859)"><path
             d="m 0,0 77.112,0 -28.656,-109.656 -51.48,0 23.255,89.712 -25.847,0 L 0,0 z"
             style="fill:none;stroke:#ffffff;stroke-opacity:1;stroke-width:0.216;stroke-linecap:butt;stroke-linejoin:miter;stroke-miterlimit:4;stroke-dasharray:none"
             id="path3049" /></g><g
           id="g3051"
           transform="translate(352.3281,378.0659)"><path
             d="m 0,0 77.04,0 -21.888,-80.136 -51.408,0 16.416,60.12 -25.776,0.072 L 0,0 z"
             style="fill:none;stroke:#ffffff;stroke-opacity:1;stroke-width:0.216;stroke-linecap:butt;stroke-linejoin:miter;stroke-miterlimit:4;stroke-dasharray:none"
             id="path3053" /></g><g
           id="g3055"
           transform="translate(292.9277,348.6177)"><path
             d="m 0,0 65.88,0 -14.328,-50.976 -65.88,0 L 0,0 z"
             style="fill:none;stroke:#ffffff;stroke-opacity:1;stroke-width:0.216;stroke-linecap:butt;stroke-linejoin:miter;stroke-miterlimit:4;stroke-dasharray:none"
             id="path3057" /></g></g></g></g></svg>